<svg width="29" height="28" viewBox="0 0 29 28" fill="none" xmlns="http://www.w3.org/2000/svg">
<rect x="0.029541" width="28" height="28" rx="5" fill="#B5CFE4"/>
<path d="M14.0296 11.3966C12.596 11.3966 11.4261 12.5665 11.4261 14.0001C11.4261 15.4337 12.596 16.6036 14.0296 16.6036C15.4632 16.6036 16.6331 15.4337 16.6331 14.0001C16.6331 12.5665 15.4632 11.3966 14.0296 11.3966ZM21.8382 14.0001C21.8382 12.922 21.848 11.8536 21.7874 10.7774C21.7269 9.52744 21.4417 8.41806 20.5277 7.504C19.6117 6.58798 18.5042 6.30478 17.2542 6.24423C16.1761 6.18369 15.1078 6.19345 14.0316 6.19345C12.9535 6.19345 11.8851 6.18369 10.8089 6.24423C9.55893 6.30478 8.44956 6.58994 7.53549 7.504C6.61948 8.42001 6.33627 9.52744 6.27573 10.7774C6.21518 11.8556 6.22495 12.9239 6.22495 14.0001C6.22495 15.0763 6.21518 16.1466 6.27573 17.2227C6.33627 18.4727 6.62143 19.5821 7.53549 20.4962C8.45151 21.4122 9.55893 21.6954 10.8089 21.756C11.8871 21.8165 12.9554 21.8067 14.0316 21.8067C15.1097 21.8067 16.1781 21.8165 17.2542 21.756C18.5042 21.6954 19.6136 21.4102 20.5277 20.4962C21.4437 19.5802 21.7269 18.4727 21.7874 17.2227C21.8499 16.1466 21.8382 15.0782 21.8382 14.0001ZM14.0296 18.006C11.8128 18.006 10.0238 16.2169 10.0238 14.0001C10.0238 11.7833 11.8128 9.99423 14.0296 9.99423C16.2464 9.99423 18.0355 11.7833 18.0355 14.0001C18.0355 16.2169 16.2464 18.006 14.0296 18.006ZM18.1996 10.7657C17.682 10.7657 17.264 10.3477 17.264 9.83017C17.264 9.31259 17.682 8.89462 18.1996 8.89462C18.7171 8.89462 19.1351 9.31259 19.1351 9.83017C19.1353 9.95307 19.1112 10.0748 19.0642 10.1884C19.0172 10.3019 18.9483 10.4051 18.8614 10.492C18.7745 10.579 18.6713 10.6479 18.5578 10.6948C18.4442 10.7418 18.3225 10.7659 18.1996 10.7657Z" fill="white"/>
</svg>
