<svg width="29" height="28" viewBox="0 0 29 28" fill="none" xmlns="http://www.w3.org/2000/svg">
<rect x="0.029541" width="28" height="28" rx="5" fill="#B5CFE4"/>
<path d="M14.5295 5C9.28279 5 5.02954 9.0294 5.02954 14C5.02954 18.9706 9.28279 23 14.5295 23C19.7763 23 24.0295 18.9706 24.0295 14C24.0295 9.0294 19.7763 5 14.5295 5Z" fill="white"/>
<path d="M19.1521 10.1773L17.4552 18.2821C17.4552 18.2821 17.2179 18.8442 16.5653 18.5744L12.6497 15.7304L11.2259 15.0785L8.82904 14.314C8.82904 14.314 8.46121 14.1904 8.42559 13.9206C8.38996 13.6508 8.84092 13.5047 8.84092 13.5047L18.3688 9.9638C18.3688 9.9638 19.152 9.63783 19.152 10.1774" fill="#B5CFE4"/>
<path d="M12.3488 18.191C12.3488 18.191 12.2345 18.1809 12.092 17.7537C11.9497 17.3265 11.2258 15.0784 11.2258 15.0784L16.9806 11.6162C16.9806 11.6162 17.3129 11.4251 17.301 11.6162C17.301 11.6162 17.3603 11.6499 17.1823 11.8073C17.0044 11.9647 12.6616 15.663 12.6616 15.663" fill="#D2E5F1"/>
<path d="M14.1511 16.8206L12.6024 18.1584C12.6024 18.1584 12.4813 18.2455 12.3489 18.1909L12.6455 15.7061" fill="#B5CFE4"/>
</svg>
