<svg width="25" height="25" viewBox="0 0 25 25" fill="none" xmlns="http://www.w3.org/2000/svg">
<path d="M12.5 0C5.59639 0 0 5.59639 0 12.5C0 19.4036 5.59639 25 12.5 25C19.4036 25 25 19.4036 25 12.5C25 5.59639 19.4036 0 12.5 0Z" fill="#B5CFE4"/>
<path d="M18.5822 7.19032L16.3495 18.4471C16.3495 18.4471 16.0373 19.2277 15.1786 18.853L10.0265 14.903L8.15303 13.9975L4.99932 12.9358C4.99932 12.9358 4.51533 12.7641 4.46846 12.3894C4.42158 12.0147 5.01494 11.8118 5.01494 11.8118L17.5517 6.89384C17.5517 6.89384 18.5821 6.4411 18.5821 7.19052" fill="white"/>
<path d="M9.63061 18.3205C9.63061 18.3205 9.48022 18.3064 9.29272 17.7131C9.10552 17.1198 8.15308 13.9974 8.15308 13.9974L15.7251 9.18877C15.7251 9.18877 16.1624 8.92334 16.1467 9.18877C16.1467 9.18877 16.2248 9.23564 15.9905 9.4542C15.7564 9.67285 10.0422 14.8093 10.0422 14.8093" fill="#D2E5F1"/>
<path d="M12.002 16.4174L9.96421 18.2754C9.96421 18.2754 9.80483 18.3963 9.63062 18.3206L10.0208 14.8694" fill="#B5CFE4"/>
</svg>
