<svg width="25" height="25" viewBox="0 0 25 25" fill="none" xmlns="http://www.w3.org/2000/svg">
<path d="M18.5822 7.19081L16.3495 18.4475C16.3495 18.4475 16.0373 19.2282 15.1786 18.8535L10.0265 14.9035L8.15303 13.998L4.99932 12.9363C4.99932 12.9363 4.51533 12.7646 4.46846 12.3899C4.42158 12.0152 5.01494 11.8123 5.01494 11.8123L17.5517 6.89433C17.5517 6.89433 18.5821 6.44159 18.5821 7.19101" fill="white"/>
<path d="M9.63086 18.321C9.63086 18.321 9.48047 18.3069 9.29297 17.7136C9.10576 17.1203 8.15332 13.9979 8.15332 13.9979L15.7254 9.18926C15.7254 9.18926 16.1626 8.92383 16.147 9.18926C16.147 9.18926 16.225 9.23613 15.9907 9.45469C15.7566 9.67334 10.0425 14.8098 10.0425 14.8098" fill="#D2E5F1"/>
<path d="M12.0022 16.4172L9.96445 18.2752C9.96445 18.2752 9.80508 18.3961 9.63086 18.3203L10.0211 14.8691" fill="#B5CFE4"/>
</svg>
