<svg width="29" height="28" viewBox="0 0 29 28" fill="none" xmlns="http://www.w3.org/2000/svg">
<rect x="0.029541" width="28" height="28" rx="5" fill="#B5CFE4"/>
<g clip-path="url(#clip0_73_197)">
<path fill-rule="evenodd" clip-rule="evenodd" d="M22.4496 9.72324C22.577 9.30416 22.4496 8.99561 21.8394 8.99561H19.8246C19.3119 8.99561 19.0755 9.26194 18.9473 9.55591C18.9473 9.55591 17.9226 12.009 16.4712 13.6024C16.0015 14.0645 15.7881 14.2111 15.5317 14.2111C15.4035 14.2111 15.2109 14.0645 15.2109 13.6446V9.72324C15.2109 9.21973 15.0697 8.99561 14.6429 8.99561H11.4745C11.1544 8.99561 10.9618 9.22894 10.9618 9.45076C10.9618 9.9274 11.6879 10.0379 11.7623 11.3796V14.2947C11.7623 14.9341 11.6449 15.05 11.3885 15.05C10.7054 15.05 9.04367 12.5854 8.05737 9.76545C7.86625 9.21666 7.67283 8.99561 7.15781 8.99561H5.14147C4.56582 8.99561 4.45068 9.26194 4.45068 9.55591C4.45068 10.0794 5.1338 12.6798 7.63215 16.1192C9.29772 18.4679 11.6426 19.7412 13.7786 19.7412C15.0597 19.7412 15.2178 19.4588 15.2178 18.9714V17.196C15.2178 16.6304 15.3391 16.5175 15.7451 16.5175C16.0444 16.5175 16.5564 16.6649 17.7522 17.797C19.1184 19.1395 19.3433 19.7412 20.1124 19.7412H22.1272C22.7029 19.7412 22.9915 19.4588 22.8257 18.9C22.643 18.3443 21.9906 17.5376 21.1256 16.5805C20.6558 16.0355 19.9512 15.4483 19.7371 15.1544C19.4385 14.7775 19.5237 14.6094 19.7371 14.274C19.7371 14.274 22.1932 10.8769 22.4488 9.72324H22.4496Z" fill="white"/>
</g>
<defs>
<clipPath id="clip0_73_197">
<rect width="18.4211" height="18.4211" fill="white" transform="translate(4.45068 5.15796)"/>
</clipPath>
</defs>
</svg>
