<svg width="25" height="25" viewBox="0 0 25 25" fill="none" xmlns="http://www.w3.org/2000/svg">
<g clip-path="url(#clip0_73_25)">
<path fill-rule="evenodd" clip-rule="evenodd" d="M24.4271 6.19575C24.6 5.627 24.4271 5.20825 23.599 5.20825H20.8646C20.1687 5.20825 19.8479 5.56971 19.674 5.96867C19.674 5.96867 18.2833 9.29784 16.3135 11.4603C15.676 12.0874 15.3865 12.2864 15.0385 12.2864C14.8646 12.2864 14.6031 12.0874 14.6031 11.5176V6.19575C14.6031 5.51242 14.4115 5.20825 13.8323 5.20825H9.53229C9.09792 5.20825 8.83646 5.52492 8.83646 5.82596C8.83646 6.47284 9.82187 6.62284 9.92292 8.44367V12.3999C9.92292 13.2676 9.76354 13.4249 9.41562 13.4249C8.48854 13.4249 6.23333 10.0801 4.89479 6.25304C4.63542 5.50825 4.37292 5.20825 3.67396 5.20825H0.9375C0.15625 5.20825 0 5.56971 0 5.96867C0 6.67909 0.927083 10.2083 4.31771 14.876C6.57812 18.0635 9.76042 19.7916 12.6594 19.7916C14.3979 19.7916 14.6125 19.4083 14.6125 18.7468V16.3374C14.6125 15.5697 14.7771 15.4166 15.3281 15.4166C15.7344 15.4166 16.4292 15.6166 18.0521 17.153C19.9062 18.9749 20.2115 19.7916 21.2552 19.7916H23.9896C24.7708 19.7916 25.1625 19.4083 24.9375 18.6499C24.6896 17.8958 23.8042 16.801 22.6302 15.502C21.9927 14.7624 21.0365 13.9655 20.7458 13.5666C20.3406 13.0551 20.4562 12.827 20.7458 12.3718C20.7458 12.3718 24.0792 7.76138 24.426 6.19575H24.4271Z" fill="#B5CFE4"/>
</g>
<defs>
<clipPath id="clip0_73_25">
<rect width="25" height="25" fill="white"/>
</clipPath>
</defs>
</svg>
