<svg width="210" height="34" viewBox="0 0 210 34" fill="none" xmlns="http://www.w3.org/2000/svg">
<path d="M0.6 33V1.05H14.505C15.945 1.05 17.265 1.35 18.465 1.95C19.665 2.55 20.7 3.345 21.57 4.335C22.47 5.325 23.16 6.435 23.64 7.665C24.15 8.895 24.405 10.155 24.405 11.445C24.405 12.855 24.15 14.205 23.64 15.495C23.13 16.785 22.395 17.895 21.435 18.825C20.505 19.755 19.41 20.43 18.15 20.85L25.665 33H19.995L13.065 21.885H5.64V33H0.6ZM5.64 17.43H14.46C15.39 17.43 16.215 17.16 16.935 16.62C17.655 16.08 18.225 15.36 18.645 14.46C19.065 13.53 19.275 12.525 19.275 11.445C19.275 10.335 19.035 9.345 18.555 8.475C18.075 7.575 17.445 6.855 16.665 6.315C15.915 5.775 15.09 5.505 14.19 5.505H5.64V17.43ZM39.1889 33.45C37.3589 33.45 35.6939 33.135 34.1939 32.505C32.7239 31.845 31.4489 30.96 30.3689 29.85C29.2889 28.71 28.4489 27.42 27.8489 25.98C27.2789 24.51 26.9939 22.95 26.9939 21.3C26.9939 19.08 27.5039 17.055 28.5239 15.225C29.5439 13.365 30.9689 11.88 32.7989 10.77C34.6289 9.63 36.7739 9.06 39.2339 9.06C41.6939 9.06 43.8089 9.63 45.5789 10.77C47.3789 11.88 48.7739 13.35 49.7639 15.18C50.7539 17.01 51.2489 18.975 51.2489 21.075C51.2489 21.435 51.2339 21.78 51.2039 22.11C51.1739 22.41 51.1439 22.665 51.1139 22.875H32.2589C32.3489 24.255 32.7239 25.47 33.3839 26.52C34.0739 27.54 34.9439 28.35 35.9939 28.95C37.0439 29.52 38.1689 29.805 39.3689 29.805C40.6889 29.805 41.9339 29.475 43.1039 28.815C44.3039 28.155 45.1139 27.285 45.5339 26.205L49.7639 27.42C49.2539 28.56 48.4739 29.595 47.4239 30.525C46.4039 31.425 45.1889 32.145 43.7789 32.685C42.3689 33.195 40.8389 33.45 39.1889 33.45ZM32.1239 19.59H46.3439C46.2539 18.24 45.8639 17.055 45.1739 16.035C44.5139 14.985 43.6589 14.175 42.6089 13.605C41.5889 13.005 40.4489 12.705 39.1889 12.705C37.9589 12.705 36.8189 13.005 35.7689 13.605C34.7489 14.175 33.9089 14.985 33.2489 16.035C32.5889 17.055 32.2139 18.24 32.1239 19.59ZM85.0348 8.565C84.7348 8.235 84.2998 7.89 83.7298 7.53C83.1598 7.14 82.4848 6.78 81.7048 6.45C80.9248 6.12 80.0848 5.85 79.1848 5.64C78.2848 5.43 77.3548 5.325 76.3948 5.325C74.2948 5.325 72.7348 5.715 71.7148 6.495C70.6948 7.275 70.1848 8.355 70.1848 9.735C70.1848 10.755 70.4698 11.565 71.0398 12.165C71.6098 12.735 72.4798 13.215 73.6498 13.605C74.8198 13.995 76.2898 14.415 78.0598 14.865C80.2198 15.375 82.0948 15.99 83.6848 16.71C85.2748 17.4 86.4898 18.33 87.3298 19.5C88.1698 20.67 88.5898 22.215 88.5898 24.135C88.5898 25.755 88.2898 27.15 87.6898 28.32C87.0898 29.49 86.2498 30.45 85.1698 31.2C84.0898 31.92 82.8448 32.46 81.4348 32.82C80.0248 33.15 78.5098 33.315 76.8898 33.315C75.2998 33.315 73.7098 33.15 72.1198 32.82C70.5598 32.49 69.0598 32.01 67.6198 31.38C66.2098 30.72 64.9048 29.925 63.7048 28.995L65.9998 24.675C66.3898 25.065 66.9448 25.5 67.6648 25.98C68.4148 26.43 69.2698 26.865 70.2298 27.285C71.2198 27.705 72.2848 28.065 73.4248 28.365C74.5948 28.635 75.7798 28.77 76.9798 28.77C78.9898 28.77 80.5198 28.425 81.5698 27.735C82.6498 27.015 83.1898 25.995 83.1898 24.675C83.1898 23.595 82.8448 22.74 82.1548 22.11C81.4648 21.45 80.4598 20.895 79.1398 20.445C77.8198 19.995 76.2448 19.545 74.4148 19.095C72.3148 18.525 70.5598 17.91 69.1498 17.25C67.7398 16.56 66.6748 15.69 65.9548 14.64C65.2648 13.56 64.9198 12.195 64.9198 10.545C64.9198 8.445 65.4298 6.675 66.4498 5.235C67.4698 3.765 68.8498 2.67 70.5898 1.95C72.3598 1.2 74.3398 0.824998 76.5298 0.824998C77.9698 0.824998 79.3348 0.989998 80.6248 1.32C81.9148 1.62 83.1148 2.04 84.2248 2.58C85.3648 3.12 86.3998 3.735 87.3298 4.425L85.0348 8.565ZM103.14 33.45C101.28 33.45 99.6145 33.135 98.1445 32.505C96.6745 31.845 95.3995 30.945 94.3195 29.805C93.2695 28.665 92.4595 27.375 91.8895 25.935C91.3195 24.465 91.0345 22.905 91.0345 21.255C91.0345 19.605 91.3195 18.045 91.8895 16.575C92.4595 15.105 93.2695 13.815 94.3195 12.705C95.3995 11.565 96.6745 10.68 98.1445 10.05C99.6445 9.39 101.31 9.06 103.14 9.06C104.97 9.06 106.62 9.39 108.09 10.05C109.59 10.68 110.865 11.565 111.915 12.705C112.995 13.815 113.82 15.105 114.39 16.575C114.96 18.045 115.245 19.605 115.245 21.255C115.245 22.905 114.96 24.465 114.39 25.935C113.82 27.375 112.995 28.665 111.915 29.805C110.865 30.945 109.59 31.845 108.09 32.505C106.62 33.135 104.97 33.45 103.14 33.45ZM96.1195 21.3C96.1195 22.8 96.4345 24.15 97.0645 25.35C97.6945 26.55 98.5345 27.495 99.5845 28.185C100.635 28.875 101.82 29.22 103.14 29.22C104.43 29.22 105.6 28.875 106.65 28.185C107.73 27.465 108.585 26.505 109.215 25.305C109.845 24.075 110.16 22.725 110.16 21.255C110.16 19.755 109.845 18.405 109.215 17.205C108.585 16.005 107.73 15.06 106.65 14.37C105.6 13.65 104.43 13.29 103.14 13.29C101.82 13.29 100.635 13.65 99.5845 14.37C98.5345 15.09 97.6945 16.05 97.0645 17.25C96.4345 18.42 96.1195 19.77 96.1195 21.3ZM118.96 23.865V9.465H123.91V22.875C123.91 24.975 124.285 26.565 125.035 27.645C125.815 28.695 126.94 29.22 128.41 29.22C129.34 29.22 130.24 29.025 131.11 28.635C132.01 28.245 132.82 27.675 133.54 26.925C134.29 26.145 134.89 25.215 135.34 24.135V9.465H140.29V27.42C140.29 27.99 140.395 28.395 140.605 28.635C140.815 28.875 141.16 29.01 141.64 29.04V33C141.13 33.09 140.71 33.15 140.38 33.18C140.05 33.21 139.735 33.225 139.435 33.225C138.535 33.225 137.785 32.985 137.185 32.505C136.585 31.995 136.24 31.35 136.15 30.57L136.06 28.23C135.01 29.94 133.645 31.245 131.965 32.145C130.285 33.015 128.44 33.45 126.43 33.45C123.97 33.45 122.11 32.64 120.85 31.02C119.59 29.4 118.96 27.015 118.96 23.865ZM159.387 13.74C157.467 13.77 155.757 14.205 154.257 15.045C152.787 15.885 151.737 17.07 151.107 18.6V33H146.157V9.465H150.747V14.73C151.557 13.11 152.622 11.82 153.942 10.86C155.262 9.87 156.657 9.33 158.127 9.24C158.427 9.24 158.667 9.24 158.847 9.24C159.057 9.24 159.237 9.255 159.387 9.285V13.74ZM172.763 33.45C170.933 33.45 169.268 33.135 167.768 32.505C166.298 31.845 165.023 30.945 163.943 29.805C162.863 28.665 162.023 27.36 161.423 25.89C160.853 24.42 160.568 22.86 160.568 21.21C160.568 18.99 161.063 16.965 162.053 15.135C163.073 13.305 164.483 11.835 166.283 10.725C168.113 9.615 170.273 9.06 172.763 9.06C175.163 9.06 177.248 9.6 179.018 10.68C180.818 11.73 182.138 13.14 182.978 14.91L178.163 16.44C177.623 15.45 176.858 14.685 175.868 14.145C174.908 13.575 173.843 13.29 172.673 13.29C171.353 13.29 170.153 13.635 169.073 14.325C168.023 14.985 167.183 15.915 166.553 17.115C165.953 18.285 165.653 19.65 165.653 21.21C165.653 22.71 165.968 24.075 166.598 25.305C167.228 26.505 168.068 27.465 169.118 28.185C170.198 28.875 171.398 29.22 172.718 29.22C173.528 29.22 174.308 29.085 175.058 28.815C175.838 28.515 176.513 28.125 177.083 27.645C177.653 27.135 178.058 26.58 178.298 25.98L183.158 27.42C182.648 28.59 181.883 29.625 180.863 30.525C179.873 31.425 178.688 32.145 177.308 32.685C175.958 33.195 174.443 33.45 172.763 33.45ZM197.23 33.45C195.4 33.45 193.735 33.135 192.235 32.505C190.765 31.845 189.49 30.96 188.41 29.85C187.33 28.71 186.49 27.42 185.89 25.98C185.32 24.51 185.035 22.95 185.035 21.3C185.035 19.08 185.545 17.055 186.565 15.225C187.585 13.365 189.01 11.88 190.84 10.77C192.67 9.63 194.815 9.06 197.275 9.06C199.735 9.06 201.85 9.63 203.62 10.77C205.42 11.88 206.815 13.35 207.805 15.18C208.795 17.01 209.29 18.975 209.29 21.075C209.29 21.435 209.275 21.78 209.245 22.11C209.215 22.41 209.185 22.665 209.155 22.875H190.3C190.39 24.255 190.765 25.47 191.425 26.52C192.115 27.54 192.985 28.35 194.035 28.95C195.085 29.52 196.21 29.805 197.41 29.805C198.73 29.805 199.975 29.475 201.145 28.815C202.345 28.155 203.155 27.285 203.575 26.205L207.805 27.42C207.295 28.56 206.515 29.595 205.465 30.525C204.445 31.425 203.23 32.145 201.82 32.685C200.41 33.195 198.88 33.45 197.23 33.45ZM190.165 19.59H204.385C204.295 18.24 203.905 17.055 203.215 16.035C202.555 14.985 201.7 14.175 200.65 13.605C199.63 13.005 198.49 12.705 197.23 12.705C196 12.705 194.86 13.005 193.81 13.605C192.79 14.175 191.95 14.985 191.29 16.035C190.63 17.055 190.255 18.24 190.165 19.59Z" fill="url(#paint0_linear_73_131)"/>
<defs>
<linearGradient id="paint0_linear_73_131" x1="104" y1="-14" x2="104" y2="49" gradientUnits="userSpaceOnUse">
<stop stop-color="#786643"/>
<stop offset="1" stop-color="#E2BD75"/>
</linearGradient>
</defs>
</svg>
