<svg width="19" height="18" viewBox="0 0 19 18" fill="none" xmlns="http://www.w3.org/2000/svg">
<path d="M9.5 0C4.25325 0 0 4.0294 0 9C0 13.9706 4.25325 18 9.5 18C14.7467 18 19 13.9706 19 9C19 4.0294 14.7467 0 9.5 0Z" fill="white"/>
<path d="M14.1225 5.17702L12.4257 13.2819C12.4257 13.2819 12.1884 13.844 11.5358 13.5742L7.62013 10.7302L6.19632 10.0782L3.7995 9.31379C3.7995 9.31379 3.43167 9.19018 3.39605 8.92039C3.36042 8.6506 3.81138 8.50449 3.81138 8.50449L13.3393 4.96355C13.3393 4.96355 14.1224 4.63758 14.1224 5.17716" fill="#B5CFE4"/>
<path d="M7.31922 13.1908C7.31922 13.1908 7.20492 13.1807 7.06242 12.7535C6.92014 12.3263 6.19629 10.0781 6.19629 10.0781L11.9511 6.61594C11.9511 6.61594 12.2833 6.42483 12.2715 6.61594C12.2715 6.61594 12.3308 6.64969 12.1527 6.80705C11.9748 6.96448 7.63205 10.6627 7.63205 10.6627" fill="#D2E5F1"/>
<path d="M9.12159 11.8206L7.57287 13.1584C7.57287 13.1584 7.45174 13.2455 7.31934 13.1909L7.61591 10.7061" fill="#B5CFE4"/>
</svg>
