<svg width="19" height="19" viewBox="0 0 19 19" fill="none" xmlns="http://www.w3.org/2000/svg">
<g clip-path="url(#clip0_73_165)">
<path fill-rule="evenodd" clip-rule="evenodd" d="M18.4198 4.72324C18.5472 4.30416 18.4198 3.99561 17.8096 3.99561H15.7948C15.2821 3.99561 15.0457 4.26194 14.9175 4.55591C14.9175 4.55591 13.8928 7.00898 12.4414 8.6024C11.9717 9.06447 11.7583 9.21107 11.5019 9.21107C11.3738 9.21107 11.1811 9.06447 11.1811 8.64462V4.72324C11.1811 4.21973 11.0399 3.99561 10.6131 3.99561H7.44469C7.12463 3.99561 6.93197 4.22894 6.93197 4.45076C6.93197 4.9274 7.65807 5.03793 7.73252 6.3796V9.29473C7.73252 9.93409 7.61509 10.05 7.35873 10.05C6.67561 10.05 5.01388 7.58541 4.02759 4.76545C3.83647 4.21666 3.64305 3.99561 3.12803 3.99561H1.11169C0.53603 3.99561 0.420898 4.26194 0.420898 4.55591C0.420898 5.07938 1.10401 7.67982 3.60237 11.1192C5.26794 13.4679 7.61278 14.7412 9.74886 14.7412C11.0299 14.7412 11.188 14.4588 11.188 13.9714V12.196C11.188 11.6304 11.3093 11.5175 11.7153 11.5175C12.0146 11.5175 12.5266 11.6649 13.7224 12.797C15.0887 14.1395 15.3136 14.7412 16.0826 14.7412H18.0974C18.6731 14.7412 18.9617 14.4588 18.7959 13.9C18.6132 13.3443 17.9608 12.5376 17.0958 11.5805C16.6261 11.0355 15.9214 10.4483 15.7073 10.1544C15.4087 9.77751 15.4939 9.60942 15.7073 9.274C15.7073 9.274 18.1634 5.87686 18.419 4.72324H18.4198Z" fill="white"/>
</g>
<defs>
<clipPath id="clip0_73_165">
<rect width="18.4211" height="18.4211" fill="white" transform="translate(0.420898 0.157959)"/>
</clipPath>
</defs>
</svg>
